<svg width="48" height="48" viewBox="0 0 48 48" fill="none" xmlns="http://www.w3.org/2000/svg">
<g clip-path="url(#clip0_1810_255)">
<path d="M24 0C37.2552 0 48 10.7448 48 24C48 37.2552 37.2552 48 24 48C10.7448 48 0 37.2552 0 24C0 10.7448 10.7448 0 24 0ZM16.3752 32.0232C15.4272 30.8784 14.2488 30.4704 12.8256 30.8016L12.4656 30.9L11.0496 33.3384C10.7825 33.7732 10.6941 34.2944 10.8028 34.7929C10.9114 35.2914 11.2088 35.7285 11.6326 36.0127C12.0563 36.2969 12.5736 36.406 13.0761 36.3173C13.5785 36.2286 14.0272 35.9489 14.328 35.5368L14.4768 35.3136L16.3728 32.0232H16.3752ZM26.904 15.984C25.7328 16.9536 24.552 19.8168 26.208 22.6728L33.504 35.3112C33.7567 35.7406 34.162 36.0587 34.6391 36.2022C35.1162 36.3456 35.6299 36.3036 36.0774 36.0847C36.5249 35.8658 36.8733 35.4861 37.0529 35.0214C37.2326 34.5568 37.2303 34.0414 37.0464 33.5784L36.9288 33.3384L35.004 29.9976H37.86C38.1195 29.9982 38.3765 29.9476 38.6163 29.8485C38.8561 29.7494 39.0739 29.6039 39.2572 29.4203C39.4406 29.2368 39.5858 29.0188 39.6846 28.7788C39.7834 28.5389 39.8338 28.2819 39.8328 28.0224C39.834 27.5411 39.6589 27.0761 39.3405 26.7152C39.0221 26.3544 38.5825 26.1227 38.1048 26.064L37.8576 26.0496H32.7216L27.456 16.9368L26.904 15.9864V15.984ZM27.5712 8.6784C27.1567 8.44034 26.6702 8.36023 26.2013 8.45286C25.7324 8.5455 25.3128 8.80462 25.02 9.1824L24.8712 9.4032L23.9904 10.9224L23.1288 9.4032C22.8762 8.97384 22.4708 8.65565 21.9937 8.51225C21.5166 8.36884 21.0029 8.41078 20.5554 8.62968C20.1079 8.84859 19.7595 9.22832 19.5799 9.69298C19.4002 10.1576 19.4025 10.673 19.5864 11.136L19.704 11.376L21.7152 14.8728L15.2712 26.04H10.2384C9.97915 26.0394 9.72233 26.09 9.48269 26.1889C9.24306 26.2878 9.02533 26.4331 8.84201 26.6164C8.65869 26.7997 8.5134 27.0175 8.41448 27.2571C8.31556 27.4967 8.26497 27.7536 8.2656 28.0128C8.2656 29.0232 9.0144 29.8512 9.9912 29.9736L10.2384 29.988H28.1904C29.0064 28.452 28.0464 26.2704 26.2464 26.0568L25.956 26.04H19.8288L28.296 11.376C28.5576 10.9222 28.6282 10.383 28.4923 9.8771C28.3563 9.3712 28.025 8.94002 27.5712 8.6784Z" fill="white"/>
</g>
<defs>
<clipPath id="clip0_1810_255">
<rect width="48" height="48" fill="white"/>
</clipPath>
</defs>
</svg>
