<svg width="512" height="149" viewBox="0 0 512 149" fill="none" xmlns="http://www.w3.org/2000/svg">
<path d="M3.332 115.629V58.648H74.476V55.315H3.332V3.332H78.974V0H0V118.961H79.64V115.629H3.332ZM143.787 33.322L114.297 72.143L85.472 33.323H81.14L112.297 74.643L78.14 118.96H82.139L114.295 77.14L146.618 118.96H150.783L116.461 74.641L147.784 33.321L143.787 33.322ZM160.781 148.285V94.97H161.114C163.114 102.745 167.057 108.993 172.944 113.714C178.831 118.434 186.328 120.794 195.436 120.795C201.323 120.795 206.543 119.601 211.098 117.213C215.651 114.825 219.456 111.576 222.511 107.466C225.565 103.356 227.898 98.5797 229.509 93.137C231.12 87.6943 231.926 81.9743 231.925 75.977C231.925 69.5337 231.092 63.591 229.425 58.149C227.758 52.7057 225.343 47.985 222.178 43.987C219.012 39.987 215.18 36.877 210.681 34.657C206.183 32.435 201.101 31.324 195.436 31.324C191.104 31.324 187.078 31.9627 183.357 33.24C179.636 34.5173 176.332 36.3223 173.444 38.655C170.539 41.0062 168.011 43.7873 165.946 46.902C163.836 50.068 162.225 53.5393 161.114 57.316H160.781V33.322H157.449V148.285H160.781ZM195.436 117.628C184.996 117.628 176.61 114.046 170.278 106.882C163.947 99.718 160.781 89.4157 160.781 75.975C160.781 70.421 161.559 65.145 163.114 60.147C164.669 55.149 166.918 50.7617 169.861 46.985C172.804 43.2083 176.441 40.2093 180.774 37.988C185.107 35.7667 189.994 34.6557 195.436 34.655C200.99 34.655 205.85 35.766 210.015 37.988C214.18 40.2093 217.624 43.236 220.345 47.068C223.066 50.9 225.121 55.2873 226.51 60.23C227.899 65.1727 228.593 70.421 228.592 75.975C228.592 80.9743 227.953 85.945 226.676 90.887C225.399 95.829 223.427 100.272 220.761 104.217C218.096 108.159 214.681 111.38 210.515 113.88C206.349 116.379 201.323 117.628 195.436 117.628ZM250.252 118.961V70.477C250.252 65.8117 250.919 61.2577 252.252 56.815C253.584 52.3717 255.639 48.4563 258.416 45.069C261.193 41.6817 264.72 39.0157 268.996 37.071C273.272 35.1263 278.354 34.321 284.241 34.655V31.323C279.132 31.2123 274.661 31.7677 270.829 32.989C266.996 34.211 263.692 35.8773 260.915 37.988C258.138 40.0987 255.917 42.57 254.251 45.402C252.587 48.2308 251.351 51.2908 250.585 54.482H250.252V33.322H246.92V118.962L250.252 118.961ZM288.406 76.808H360.049C360.272 70.9213 359.689 65.2567 358.3 59.814C356.912 54.3707 354.691 49.539 351.636 45.319C348.581 41.0977 344.638 37.7097 339.806 35.155C334.974 32.6003 329.226 31.323 322.562 31.323C317.785 31.323 313.12 32.323 308.566 34.323C304.012 36.3217 300.013 39.237 296.57 43.069C293.127 46.901 290.35 51.5943 288.24 57.149C286.13 62.7037 285.075 69.0347 285.074 76.142C285.074 82.4733 285.796 88.388 287.24 93.886C288.684 99.384 290.905 104.16 293.904 108.215C296.904 112.269 300.764 115.407 305.484 117.628C310.204 119.85 315.897 120.905 322.562 120.794C332.336 120.794 340.555 118.045 347.22 112.547C353.885 107.049 357.828 99.3013 359.05 89.304H355.718C354.274 98.746 350.581 105.827 344.638 110.547C338.695 115.268 331.225 117.628 322.228 117.628C316.119 117.628 310.954 116.573 306.733 114.463C302.513 112.352 299.07 109.464 296.403 105.799C293.738 102.133 291.766 97.8287 290.489 92.886C289.211 87.944 288.517 82.5847 288.406 76.808ZM356.717 73.476H288.407C288.739 67.478 289.849 62.091 291.738 57.315C293.627 52.5377 296.098 48.4557 299.153 45.069C302.207 41.6817 305.761 39.099 309.816 37.321C313.871 35.543 318.23 34.6543 322.895 34.655C328.448 34.655 333.336 35.6827 337.557 37.738C341.777 39.7933 345.304 42.598 348.137 46.152C350.969 49.7067 353.107 53.844 354.551 58.564C355.995 63.2853 356.717 68.256 356.717 73.476ZM429.194 58.648H432.526C432.526 49.0947 429.749 42.1523 424.196 37.821C418.641 33.489 411.088 31.323 401.536 31.323C396.204 31.323 391.705 31.9897 388.04 33.323C384.375 34.6563 381.376 36.3777 379.043 38.487C376.711 40.597 375.045 42.9297 374.045 45.485C373.045 48.0403 372.545 50.484 372.545 52.816C372.545 57.4807 373.378 61.2017 375.045 63.979C376.711 66.7557 379.321 68.9217 382.875 70.477C385.318 71.587 388.095 72.587 391.206 73.477C394.316 74.365 397.926 75.3087 402.036 76.308C405.701 77.198 409.311 78.0867 412.866 78.974C416.42 79.8633 419.558 81.0573 422.279 82.556C425.001 84.056 427.223 85.9723 428.944 88.305C430.665 90.6377 431.526 93.692 431.526 97.468C431.526 101.134 430.665 104.244 428.944 106.798C427.237 109.34 424.99 111.474 422.363 113.047C419.696 114.657 416.725 115.823 413.449 116.545C410.172 117.267 406.979 117.628 403.869 117.628C393.761 117.628 386.013 115.379 380.626 110.881C375.239 106.382 372.546 99.301 372.546 89.637H369.213C369.213 100.412 372.129 108.298 377.96 113.297C383.792 118.295 392.428 120.794 403.869 120.794C407.534 120.794 411.227 120.377 414.949 119.544C418.669 118.711 422.001 117.351 424.945 115.462C427.863 113.6 430.314 111.092 432.109 108.132C433.942 105.132 434.859 101.466 434.859 97.135C434.859 93.025 434.054 89.6927 432.443 87.138C430.832 84.5833 428.722 82.473 426.111 80.807C423.5 79.141 420.557 77.836 417.281 76.892C413.986 75.9424 410.681 75.0257 407.367 74.142C403.289 73.0721 399.207 72.017 395.121 70.977C391.623 70.0883 388.374 69.033 385.375 67.811C382.487 66.589 380.182 64.8397 378.46 62.563C376.739 60.2857 375.878 57.0367 375.878 52.816C375.878 52.0387 376.1 50.6503 376.544 48.651C376.989 46.651 378.044 44.6237 379.71 42.569C381.376 40.5143 383.931 38.6817 387.374 37.071C390.817 35.4603 395.538 34.655 401.536 34.655C405.645 34.655 409.394 35.0993 412.782 35.988C416.17 36.8767 419.086 38.293 421.529 40.237C423.972 42.181 425.861 44.6523 427.194 47.651C428.527 50.651 429.194 54.3167 429.194 58.648ZM506.335 58.648H509.667C509.667 49.0947 506.89 42.1523 501.337 37.821C495.784 33.4897 488.23 31.3237 478.677 31.323C473.346 31.323 468.847 31.9897 465.182 33.323C461.516 34.6557 458.517 36.377 456.185 38.487C453.852 40.597 452.185 42.9297 451.186 45.485C450.186 48.0403 449.686 50.484 449.687 52.816C449.687 57.4807 450.52 61.2017 452.187 63.979C453.852 66.7557 456.462 68.9217 460.017 70.477C462.461 71.587 465.238 72.587 468.347 73.477C471.457 74.365 475.067 75.3087 479.177 76.308C482.843 77.198 486.453 78.0867 490.007 78.974C493.562 79.8633 496.7 81.0573 499.421 82.556C502.142 84.056 504.364 85.9723 506.085 88.305C507.807 90.637 508.668 93.6913 508.668 97.468C508.668 101.134 507.807 104.244 506.085 106.798C504.378 109.34 502.132 111.474 499.505 113.047C496.838 114.657 493.867 115.823 490.59 116.545C487.313 117.267 484.12 117.628 481.01 117.628C470.902 117.628 463.155 115.379 457.768 110.881C452.38 106.382 449.686 99.301 449.687 89.637H446.355C446.355 100.412 449.271 108.298 455.102 113.297C460.933 118.295 469.569 120.794 481.01 120.794C484.676 120.794 488.369 120.377 492.09 119.544C495.81 118.711 499.142 117.351 502.087 115.462C505.005 113.6 507.456 111.092 509.251 108.132C511.084 105.132 512.001 101.466 512 97.135C512 93.025 511.195 89.6927 509.584 87.138C507.973 84.5833 505.863 82.473 503.253 80.807C500.643 79.141 497.7 77.836 494.423 76.892C491.128 75.9424 487.823 75.0257 484.509 74.142C480.431 73.0721 476.349 72.017 472.263 70.977C468.764 70.0883 465.515 69.033 462.516 67.811C459.628 66.589 457.323 64.8397 455.602 62.563C453.88 60.2857 453.019 57.0367 453.019 52.816C453.019 52.0387 453.241 50.6503 453.686 48.651C454.131 46.6517 455.186 44.6243 456.851 42.569C458.518 40.515 461.072 38.6823 464.515 37.071C467.958 35.461 472.679 34.6557 478.678 34.655C482.787 34.655 486.536 35.0993 489.924 35.988C493.312 36.8767 496.228 38.293 498.671 40.237C501.114 42.181 503.003 44.6523 504.336 47.651C505.669 50.651 506.336 54.3167 506.336 58.648" fill="white"/>
</svg>
