<svg width="44" height="43" viewBox="0 0 44 43" fill="none" xmlns="http://www.w3.org/2000/svg">
<path d="M21.583 37.625C25.1574 37.6248 28.6305 36.4375 31.4569 34.2495C34.2834 32.0616 36.3032 28.9969 37.1992 25.5366M21.583 37.625C18.0086 37.6248 14.5356 36.4375 11.7091 34.2495C8.88261 32.0616 6.86282 28.9969 5.96685 25.5366M21.583 37.625C26.0353 37.625 29.6455 30.4046 29.6455 21.5C29.6455 12.5954 26.0353 5.375 21.583 5.375M21.583 37.625C17.1307 37.625 13.5205 30.4046 13.5205 21.5C13.5205 12.5954 17.1307 5.375 21.583 5.375M37.1992 25.5366C37.5306 24.2466 37.708 22.8939 37.708 21.5C37.7124 18.7267 36.9982 15.9996 35.6351 13.5844M37.1992 25.5366C32.4211 28.1854 27.0462 29.5711 21.583 29.5625C15.9178 29.5625 10.5947 28.1023 5.96685 25.5366M5.96685 25.5366C5.62777 24.2179 5.4568 22.8616 5.45801 21.5C5.45801 18.6244 6.21051 15.9225 7.53097 13.5844M21.583 5.375C24.4429 5.37381 27.2517 6.13352 29.7211 7.57618C32.1905 9.01884 34.2316 11.0925 35.6351 13.5844M21.583 5.375C18.7231 5.37381 15.9143 6.13352 13.4449 7.57618C10.9755 9.01884 8.9344 11.0925 7.53097 13.5844M35.6351 13.5844C31.734 16.9634 26.744 18.8199 21.583 18.8125C16.2116 18.8125 11.2988 16.8417 7.53097 13.5844" stroke="#0B0B0B" stroke-width="2" stroke-linecap="round" stroke-linejoin="round"/>
</svg>
