<svg xmlns="http://www.w3.org/2000/svg" id="logosandtypes_com" data-name="logosandtypes com" viewBox="0 0 150 150">
  <defs>
    <style>
      .cls-1 {
        fill: #e44a49;
      }

      .cls-2 {
        fill: none;
      }
    </style>
  </defs>
  <g id="Layer_3" data-name="Layer 3">
    <g id="Layer_3-2" data-name="Layer 3">
      <g id="Layer_2" data-name="Layer 2">
        <path id="Layer_3-3" data-name="Layer 3" class="cls-2" d="M0,0H150V150H0V0Z"/>
      </g>
    </g>
  </g>
  <path class="cls-1" d="M141.29,68.41c-3.46-33.94-32.09-59.77-66.21-59.7-36.67,.07-66.52,30.16-66.31,66.8,.21,33.94,25.93,62.29,59.7,65.72,.31,.04,.63-.14,.77-.45,.04-.11,.07-.21,.07-.32V75.13h-5.18c-.42,0-.77-.32-.77-.73v-10.32c0-.42,.35-.77,.77-.77h16.2c.42,0,.77,.35,.77,.77v76.39c0,.42,.35,.77,.77,.77h.07c36.5-3.71,63.06-36.32,59.35-72.82Zm-47.35,58.02c-.38,.14-.8-.07-.94-.45-.04-.07-.07-.17-.07-.24v-10.92c0-.45,.28-.84,.66-1.05,21.35-10.15,30.41-35.66,20.26-57-7.21-15.12-22.57-24.67-39.3-24.39-22.75,.35-41.4,18.65-42.1,41.4-.56,16.97,9.03,32.68,24.36,40,.42,.21,.66,.59,.66,1.05v10.92c0,.42-.35,.73-.77,.73-.07,0-.18,0-.24-.04-21.7-7.94-36.04-28.69-35.87-51.79,.28-29.67,24.5-53.89,54.17-54.1,30.3-.24,55.04,24.36,55.04,54.59,0,23.55-14.94,43.64-35.87,51.3Z"/>
</svg>