<svg width="48" height="48" viewBox="0 0 48 48" fill="none" xmlns="http://www.w3.org/2000/svg">
<path fill-rule="evenodd" clip-rule="evenodd" d="M0 24C0 10.7452 10.7452 0 24 0C37.2548 0 48 10.7452 48 24C48 37.2548 37.2548 48 24 48C10.7452 48 0 37.2548 0 24ZM26.9073 22.6228L30.7859 18.7441L16.2944 10.5119C15.6299 10.1317 15.0183 10.0687 14.5441 10.2596L26.9073 22.6228ZM13.5761 11.9764L13.5761 11.9763C13.5783 11.9531 13.5805 11.9298 13.5818 11.9057L25.6032 23.9271L13.5722 35.9581C13.5719 35.9474 13.5714 35.9369 13.5709 35.9265C13.57 35.9084 13.5692 35.8903 13.5692 35.8715V12.0889C13.5692 12.0493 13.5726 12.0129 13.5761 11.9764ZM26.9073 25.2312L14.4583 37.6802C14.9433 37.9104 15.5896 37.855 16.2944 37.4613L30.8551 29.179L26.9073 25.2312ZM32.4508 19.6876L37.2703 22.4264C38.776 23.275 38.776 24.6734 37.2703 25.5339L32.5184 28.2343L28.2113 23.9271L32.4508 19.6876Z" fill="white"/>
</svg>
