<svg width="31" height="39" viewBox="0 0 31 39" fill="none" xmlns="http://www.w3.org/2000/svg">
<path d="M30.4658 18.1176C29.9959 17.7229 30.3089 17.4633 30.4785 17.1544C30.4872 17.1702 30.4938 17.1871 30.4979 17.2045C30.7636 16.975 30.9365 16.6609 30.9856 16.3185C31.0348 15.9761 30.9569 15.6279 30.7661 15.3363C30.4292 14.8747 29.892 15.2338 29.4782 15.5078L28.4368 16.0676C29.0581 16.0421 29.6803 16.0909 30.2895 16.213L29.7763 16.4827C29.7373 16.4624 29.7018 16.4364 29.6709 16.4056C29.0031 16.5975 28.2239 16.5183 27.7286 17.1224C27.0498 17.981 26.2555 18.7471 25.3672 19.3999C25.2045 19.4756 25.0233 19.5053 24.8442 19.4857C24.9608 19.4699 25.0732 19.4323 25.1752 19.3752L22.9489 19.0197L23.1253 19.9648C23.1587 20.0251 23.2111 20.0735 23.2747 20.1029C23.2866 20.1282 23.2953 20.1548 23.3008 20.1822L23.2747 20.1654C23.2231 20.1465 23.1738 20.1276 23.1253 20.1051C23.061 20.2621 23.1253 20.4606 23.0162 20.6045C22.9922 20.5886 22.9706 20.5695 22.952 20.5478C22.4365 19.2088 21.6312 18.2216 19.9585 18.2499C20.2691 19.4742 20.3591 20.7417 20.2245 21.9959C20.2095 21.9959 20.1968 22.025 20.1856 22.0817V22.1129C19.9279 22.1129 19.9712 21.8287 19.842 21.7139L19.8293 21.7407V21.6993C19.7994 21.4907 19.9085 21.2501 19.6358 21.1308C19.6358 21.1141 19.6186 21.0952 19.6059 21.0785C19.5932 20.8175 19.8203 20.5056 19.4318 20.3239H19.4147C19.4189 20.27 19.4261 20.2164 19.4363 20.1633C19.3803 19.8768 19.5857 19.5366 19.2219 19.3127L19.198 19.3338C19.1868 19.0797 19.1136 18.8319 18.9843 18.6109C18.8551 18.3899 18.6735 18.2021 18.4547 18.0631L18.8028 20.2439H18.8133C19.0318 21.7571 19.0117 23.2939 18.7535 24.8012V24.9081C18.4166 24.7409 18.6676 24.3338 18.4211 24.131V24.3105C18.4115 24.235 18.4115 24.1586 18.4211 24.083L18.1268 21.8011C18.0916 21.8578 18.0628 21.918 18.0408 21.9806C18.0502 21.8894 18.0733 21.8 18.1096 21.7153C18.0878 21.2277 17.9788 20.7475 17.7876 20.2963V20.0877C17.8062 19.872 17.7797 19.6548 17.7096 19.4494C17.6395 19.2439 17.5273 19.0545 17.3797 18.8925C17.3618 18.8943 17.3447 18.9009 17.3304 18.9114L17.2019 18.9325C17.2433 18.8679 17.2974 18.8118 17.361 18.7675C17.1671 17.5731 16.5513 16.4818 15.6197 15.6816C14.4846 14.7429 13.2162 13.9687 11.8538 13.3829C10.2849 12.6349 10.0414 12.7432 9.37578 14.3418C9.41763 14.3936 9.45373 14.4497 9.48338 14.509H9.3698C9.25921 14.698 9.17269 14.8994 9.11209 15.1087L8.91037 15.3406C8.8826 15.3696 8.85762 15.401 8.83569 15.4344C8.67208 15.2818 8.76696 15.0477 8.69151 14.8703C8.66329 14.9131 8.63829 14.9578 8.61678 15.0041C8.62227 14.8987 8.64762 14.7952 8.69151 14.6987C8.74978 14.3251 8.80727 13.9529 8.87376 13.5305C6.6087 14.4079 6.13209 16.9152 4.17332 18.2964C4.29808 17.3121 4.95474 16.8796 5.24684 16.1614C4.6532 16.3629 4.00943 16.3774 3.40685 16.2028C4.48819 15.9712 5.45515 15.3857 6.14628 14.5439C4.77618 14.5192 3.56971 15.0767 2.10101 14.6377C3.70241 14.3108 5.28027 13.8829 6.82461 13.3568C7.07786 13.2899 7.42225 13.2841 7.46857 12.9766C7.51489 12.6691 7.18917 12.5586 6.97253 12.4081C5.96998 11.7168 4.9555 11.0378 3.9664 10.3312C3.7084 10.2007 3.48811 10.0094 3.32564 9.77469C3.16317 9.54002 3.06371 9.26947 3.03633 8.98777C3.61828 9.34107 3.98133 9.84268 4.59541 9.94081H4.63425C4.54718 9.97724 4.47275 10.0373 4.41986 10.1138C4.47365 10.3559 4.66864 10.2788 4.82776 10.2876C4.90609 10.2307 4.99517 10.1894 5.08994 10.1662C5.69976 10.5712 6.37139 10.88 7.08009 11.0814C7.17422 11.0567 7.26688 11.0291 7.36101 11.0087C7.2829 11.0938 7.19657 11.1715 7.10325 11.2406C7.91298 11.5594 8.8029 11.6321 9.65592 11.4493L9.26525 11.2908H9.28467C9.22453 11.2281 9.15143 11.1786 9.07023 11.1454C9.12575 11.1513 9.18088 11.1603 9.23534 11.1723C9.3967 11.245 9.58723 11.2035 9.74187 11.2995C10.725 11.0943 11.6515 10.6861 12.4586 10.1026C13.2658 9.51903 13.9349 8.77372 14.4206 7.91698C14.3881 7.87082 14.3593 7.82219 14.3347 7.77158C14.3596 7.76965 14.3846 7.76965 14.4094 7.77158C14.5276 7.39784 14.5276 6.99818 14.4094 6.62444C14.3452 6.35692 14.3496 6.0647 14.0874 5.87423H14.0463C14.0508 5.8592 14.0543 5.84389 14.0568 5.82842C13.5481 5.10147 13.2709 5.34792 13.0991 6.03707H13.0842L13.0236 6.56773L13.0408 6.66151L13.0259 6.6448C12.8242 6.93922 12.8668 7.29469 12.5582 7.54549C12.449 7.64011 12.3193 7.70953 12.1787 7.74855C12.0381 7.78757 11.8903 7.79519 11.7462 7.77084C11.6531 7.75702 11.5582 7.76124 11.4668 7.78322H10.5823C9.48937 7.76868 9.16737 7.26707 9.53641 6.23915C9.58796 6.08867 9.79864 5.92802 9.65446 5.73538C9.26824 5.56382 8.89844 5.73539 8.53388 5.7143C8.50597 5.69869 8.47638 5.68601 8.4457 5.6765H8.49052C8.23503 5.32974 7.85928 5.49911 7.53058 5.46785H7.48353C6.8802 5.2904 6.25768 5.18186 5.62857 5.14437C5.51844 5.17102 5.40665 5.19068 5.2939 5.20325C5.33443 5.18208 5.37318 5.15776 5.40971 5.13055L4.8554 5.08911C2.80922 4.40577 0.775746 5.41262 0.694317 7.67563C0.625588 9.57298 0.479895 11.4616 0.311809 13.3502C0.294627 13.6156 0.26926 14.0045 0.252078 14.2953C0.178955 14.3859 0.127553 14.4913 0.101701 14.6037C0.0758491 14.7162 0.076193 14.8329 0.102658 14.9452C-0.0397661 15.8325 -0.0339564 16.7363 0.119848 17.6218V17.6095C0.31506 18.3953 0.669055 19.1354 1.16122 19.7867C2.5739 21.9676 3.97161 24.16 5.41268 26.3242C6.07804 27.5284 7.13536 28.4837 8.4188 29.0401C8.50183 29.0568 8.57522 29.1038 8.62394 29.1713C8.67266 29.2388 8.69305 29.3219 8.68102 29.4036C8.72809 29.2785 8.63996 29.5439 8.75202 29.4639C8.86407 29.3839 8.80355 29.4639 8.67282 29.5075C8.57979 29.5273 8.48859 29.5546 8.40015 29.5889C7.38864 29.5679 7.40207 29.6493 7.43793 30.8197C7.51251 31.7488 7.47062 32.6832 7.31318 33.6025L7.28778 33.6294L6.48022 38.8525C6.48117 38.9181 6.49279 38.9831 6.5146 39.0452L6.44361 39.5635L6.40102 39.5947C5.98037 41.0388 5.63851 42.5035 5.37684 43.9827C5.35584 44.0188 5.34267 44.0587 5.33817 44.1C5.33367 44.1412 5.33792 44.1829 5.35066 44.2225C5.25835 44.4646 5.20545 44.7192 5.19381 44.9771C8.53911 44.9771 11.85 44.9648 15.1438 44.9771C15.5733 44.9771 15.7511 44.879 15.8221 44.5591C15.8435 44.5478 15.8642 44.5351 15.8841 44.5213C16.292 43.2681 16.1157 41.9203 16.3906 40.6394C16.4123 40.1778 16.3047 39.722 16.363 39.2582C16.4377 39.0495 16.3801 39.1433 16.4377 39.4036L16.4504 39.4159C16.4758 39.4399 16.5083 39.4554 16.5433 39.4602C16.5784 39.4651 16.6141 39.459 16.6453 39.4428C16.6518 39.5135 16.6655 39.5834 16.6864 39.6515C16.745 39.6768 16.8094 39.6868 16.8732 39.6805V39.6282C16.8712 39.6465 16.8757 39.665 16.8859 39.6805L16.9524 39.7888C16.9995 39.8659 17.0488 39.8703 17.0966 39.8099V39.8579H17.2273C17.2504 40.0786 17.2597 40.3005 17.2549 40.5223C17.2412 40.8022 17.26 41.0826 17.311 41.3583V41.4688C17.2928 41.7108 17.2928 41.9538 17.311 42.1958C17.244 43.0909 17.3033 43.9908 17.4873 44.8703C18.4559 44.9953 19.4349 45.0255 20.4097 44.9604H22.0331C23.0917 45.0377 24.1559 45.0018 25.2066 44.8535C25.2492 44.6883 25.2772 44.5197 25.2902 44.3498C25.3257 44.1675 25.3257 43.9803 25.2902 43.798C25.273 43.38 25.2155 42.962 25.1998 42.544C25.0175 42.0802 25.2364 41.5742 25.0504 41.1104C25.1385 39.4683 24.8637 37.8392 24.8076 36.2064C24.6336 35.8051 24.8315 35.3581 24.6582 34.9524C24.6306 34.3258 24.845 33.6991 24.4782 33.1016V32.6836C24.3573 32.3953 24.1381 32.1563 23.8574 32.0068L23.8163 32.0235C22.8131 31.9656 21.8234 31.7698 20.8766 31.442C21.9953 31.3404 23.103 31.1458 24.1876 30.8604C25.1587 30.5115 25.332 29.6631 25.4179 28.8547C25.4844 28.2528 24.7053 28.6752 24.452 28.3458C24.4087 28.2891 24.3422 28.2768 24.452 28.122C25.3556 27.824 26.1611 27.297 26.7858 26.5954C26.7893 26.4623 26.8254 26.3319 26.8912 26.2151L26.9016 26.2551C26.902 26.26 26.902 26.2648 26.9016 26.2697C26.874 26.4056 26.6872 26.5561 26.936 26.6666C27.3342 26.4197 27.6585 26.0753 27.8765 25.6678C27.739 25.5006 27.6255 25.6677 27.503 25.691C27.5864 25.6387 27.6741 25.5933 27.7652 25.5551C29.047 23.8853 29.8802 21.9305 30.1894 19.8681H30.2215L30.2798 19.147L30.2521 19.0176H30.2671C30.5323 18.7442 30.6525 18.2739 30.4658 18.1176Z" fill="#0B0B0B"/>
<path d="M10.6106 5.70261C10.0653 5.83637 9.94275 6.12063 9.96666 6.62586C9.99056 7.13109 9.96662 7.37389 11.5773 7.37389C11.7633 7.3423 11.9441 7.28603 12.1144 7.20668C12.1845 7.16271 12.2451 7.10594 12.2929 7.0395C12.4887 6.87936 12.6357 6.67008 12.7179 6.4344C12.8 6.19872 12.8143 5.94563 12.7591 5.70261C12.6627 5.43291 11.4675 5.4947 10.6106 5.70261Z" fill="#0B0B0B"/>
<path d="M19.9116 8.59811C19.2592 9.90064 18.6764 11.2352 18.1658 12.5964C17.8756 13.1131 17.8054 13.7199 17.9701 14.2865C17.9691 14.2921 17.9691 14.2977 17.9701 14.3033L17.9805 14.3156H17.9656C18.0066 14.5432 17.8557 14.863 18.3002 14.9234L18.2532 14.7147C18.5731 15.0285 18.954 15.2771 19.3737 15.446C19.4262 15.4671 19.6188 15.446 19.6188 15.446C19.6188 15.446 20.1737 15.4807 20.5263 15.446C20.6141 15.4374 20.6576 15.4184 20.7506 15.4184C21.8241 14.9168 22.0385 13.8191 22.554 12.9468C23.5251 11.3089 24.1773 9.46974 25.708 8.18085C25.7761 7.6353 25.7761 7.99877 25.6908 6.99372C25.5183 6.49767 25.1918 6.06599 24.7564 5.75829C24.3209 5.45058 23.798 5.28204 23.2599 5.27594C21.7165 5.19452 21.0337 5.75864 20.2217 7.78321C20.1732 7.99877 20.0407 8.34045 19.9116 8.59811Z" fill="#0B0B0B"/>
<path d="M25.7582 10.0047C24.5511 11.7805 23.4431 13.6183 22.4391 15.51C22.4036 15.5651 22.3719 15.6224 22.3442 15.6815C22.2691 15.844 22.2277 16.0192 22.2223 16.1972C22.2169 16.3752 22.2475 16.5525 22.3125 16.719C22.3775 16.8855 22.4756 17.0378 22.6012 17.1674C22.7267 17.297 22.8772 17.4012 23.0442 17.4742C23.6808 17.8656 24.4265 18.0554 25.1785 18.0172C25.6795 17.9918 25.7727 17.8104 26.175 17.4967C27.0364 16.4111 27.7992 15.2548 28.455 14.0408C28.5342 13.9005 28.5193 13.5959 28.786 13.6504C29.1102 13.7173 28.8764 14.0284 28.9683 14.2065C29.0061 14.255 29.0537 14.2956 29.108 14.3258H28.9683C28.919 14.4712 28.8353 14.6725 28.9855 14.7437C29.084 14.7912 29.1975 14.8001 29.3025 14.7686C29.4076 14.7371 29.4962 14.6676 29.5502 14.5744C29.5266 14.5195 29.4915 14.47 29.4471 14.429L29.5502 14.4559C30.1105 14.3345 30.2868 13.8961 30.4467 13.4381V13.4549C30.588 12.9565 30.5982 12.4315 30.4766 11.9283L30.4399 11.9682C30.4508 11.9434 30.4631 11.9191 30.4766 11.8955C30.4408 11.0911 30.1042 10.3272 29.5301 9.74739L29.4143 9.70378C29.4555 9.69581 29.4948 9.68025 29.5301 9.65797C28.7912 8.90775 27.8791 9.00372 26.9535 9.15856C26.9556 9.18857 26.9556 9.21869 26.9535 9.2487C26.7128 9.29171 26.4833 9.38065 26.2781 9.51041C26.073 9.64018 25.8963 9.80818 25.7582 10.0047Z" fill="#0B0B0B"/>
<path d="M7.36905 4.37305C8.87211 4.46537 10.3752 4.58168 11.8887 4.66964C12.1636 4.71783 12.4472 4.67712 12.6961 4.55372C12.945 4.43033 13.1455 4.23104 13.267 3.9863C13.3873 3.64881 13.3933 3.28271 13.2842 2.94166C13.2899 2.66519 13.2354 2.39069 13.1245 2.13612C13.0135 1.88156 12.8485 1.65268 12.6403 1.4645L12.6059 1.41869L12.7553 1.46232C12.6418 0.695385 12.0508 0.403139 11.3942 0.179237C11.3574 0.196952 11.3171 0.20687 11.2761 0.208321L11.3598 0.179237L10.8443 0.0890995C10.8122 0.106738 10.7759 0.115993 10.739 0.115988C10.739 0.10581 10.7562 0.101446 10.7652 0.0905415C8.86466 -0.456856 6.56523 1.5779 6.93502 3.50069C6.98208 3.82201 6.68848 4.33161 7.36905 4.37305ZM10.4319 0.204683C10.4033 0.198281 10.3759 0.187745 10.3505 0.173424C10.3753 0.18856 10.4023 0.20007 10.4305 0.207589L10.4319 0.204683Z" fill="#0B0B0B"/>
<path d="M15.2997 6.16498L15.2757 6.31036L15.3273 7.22559C15.3079 7.52655 15.2862 7.82752 15.2675 8.1263L15.4819 8.3582C15.4826 8.36715 15.4826 8.37614 15.4819 8.38509C15.4583 8.41293 15.4285 8.43515 15.3947 8.45002C15.3609 8.46489 15.324 8.47202 15.2869 8.47088C14.9492 9.1798 14.384 9.76277 13.6763 10.132C12.9569 10.6212 13.0174 11.0159 13.6763 11.5357C14.2739 12.0119 15.0808 12.2023 15.529 12.8646L15.4408 12.9526C15.4259 12.9649 15.4147 12.9795 15.3997 12.9925L13.7854 12.4997C14.1051 12.8253 14.3412 13.2186 14.7969 13.3356H14.8208L15.0785 13.5094C15.1565 13.4794 15.2397 13.4638 15.3236 13.4636C16.2947 14.003 16.5936 13.8816 17.0971 12.8224C17.4624 12.0497 17.7694 11.2515 18.0996 10.4656C18.1892 9.91551 18.0452 10.3896 18.1892 10.1203C19.0495 8.51286 19.7615 6.83428 20.3169 5.10434C20.2816 4.96097 20.2578 4.81513 20.2459 4.66816C20.2735 4.82235 20.3303 4.97023 20.4132 5.10434C20.5035 4.66354 20.5035 4.20973 20.4132 3.76892C20.3293 3.90302 20.2711 4.0508 20.2414 4.2051C20.2546 4.05803 20.2795 3.91219 20.3161 3.76892C20.2656 3.34617 20.0941 2.94572 19.821 2.61322C19.548 2.28072 19.1845 2.02955 18.7719 1.88831C18.5661 1.66913 18.285 1.53079 17.9815 1.49938V1.55172C17.9682 1.53239 17.9524 1.5148 17.9345 1.49938C17.6911 1.38039 17.4225 1.31842 17.1501 1.31842C16.8777 1.31842 16.6091 1.38039 16.3657 1.49938H16.3806C15.6141 1.79816 14.8522 2.09911 14.6333 3.00126H14.5048C14.3859 3.63357 14.396 4.28248 14.5346 4.91098C14.9407 5.45227 15.0221 5.62481 15.2997 6.16498ZM15.6799 7.04532L15.6567 7.06422L15.6784 7.04315L15.6799 7.04532Z" fill="#0B0B0B"/>
</svg>
